<svg version="1.1" xmlns="http://www.w3.org/2000/svg" xmlns:xlink="http://www.w3.org/1999/xlink" width="107.97837" height="107.97837" viewBox="0,0,107.97837,107.97837"><defs><radialGradient cx="240.00001" cy="180" r="53.98336" gradientUnits="userSpaceOnUse" id="color-1"><stop offset="0" stop-color="#ffffff"/><stop offset="1" stop-color="#ff4e4e"/></radialGradient></defs><g transform="translate(-186.01081,-126.01081)"><g data-paper-data="{&quot;isPaintingLayer&quot;:true}" fill-rule="nonzero" stroke="none" stroke-width="0" stroke-linecap="butt" stroke-linejoin="miter" stroke-miterlimit="10" stroke-dasharray="" stroke-dashoffset="0" style="mix-blend-mode: normal"><path d="M186.44757,186.8074c-3.75962,-29.57619 17.16885,-56.60021 46.74504,-60.35983c29.57619,-3.75962 56.6002,17.16885 60.35982,46.74504c3.75962,29.57619 -17.16885,56.6002 -46.74503,60.35982c-29.57619,3.75962 -56.60021,-17.16885 -60.35983,-46.74503z" fill="url(#color-1)"/><g fill="#ffffff"><g><path d="M231.24035,199.216c2.5124,4.76016 -0.42417,11.12598 -6.55903,14.21845c-6.13484,3.09246 -13.1448,1.74053 -15.6572,-3.01963c-2.5124,-4.76016 0.42417,-11.12598 6.55901,-14.21844c6.13484,-3.09246 13.14482,-1.74053 15.65722,3.01963z"/><path d="M226.0884,202.56487l-4.8115,-41.97846l5.99692,-0.68737l4.8115,41.97846z"/></g><g><path d="M267.53946,191.37937c2.5124,4.76016 -0.42417,11.12598 -6.55901,14.21844c-6.13485,3.09246 -13.14482,1.74055 -15.65722,-3.01963c-2.5124,-4.76016 0.42417,-11.12598 6.55901,-14.21844c6.13485,-3.09246 13.14482,-1.74055 15.65722,3.01963z"/><path d="M262.38749,194.72826l-4.8115,-41.97846l5.99692,-0.68737l4.8115,41.97846z"/></g><path d="M222.58509,171.96288l-1.81263,-15.81453l41.96507,-11.24317l1.81263,15.81453z"/></g></g></g></svg>