<svg width="1448" height="500" viewBox="0 0 1448 500" fill="none" xmlns="http://www.w3.org/2000/svg">
<path d="M250 500C111.929 500 0 388.071 0 250C0 111.929 111.929 0 250 0H1198C1336.07 0 1448 111.929 1448 250C1448 388.071 1336.07 500 1198 500H250Z" fill="#FE8211"/>
<path d="M250 0C192.818 0 140.12 19.1979 97.9996 51.5V448.5C131.88 474.483 172.604 491.987 217 497.841V287H304L356 187H217V156H372L453 0H250Z" fill="white"/>
<path d="M426 359V156H504V360C504 397 510 436 557 436C605.561 436 610 394 610 359V156H688V359C688 422 671 500 557 500C443 500 426 421 426 359Z" fill="white"/>
<path d="M1151 156H1073V500H1151V156Z" fill="white"/>
<path fill-rule="evenodd" clip-rule="evenodd" d="M766 500H844V376H907C966.5 376 1017 337.5 1017 266C1017 194.5 969.5 156 907 156H766V500ZM844 313V218H890C890 218 936.5 218 936 266C935.5 314 890 313 890 313H844Z" fill="white"/>
<circle cx="1228.5" cy="378" r="27.5" fill="white"/>
<circle cx="1318.5" cy="378" r="27.5" fill="white"/>
<circle cx="1273.5" cy="334.5" r="27.5" fill="white"/>
<circle cx="1273.5" cy="421.5" r="27.5" fill="white"/>
</svg>
