<svg width="124" height="104" viewBox="0 0 124 104" fill="none" xmlns="http://www.w3.org/2000/svg">
<path d="M7.5 3.12169e-06C3.76466 8.45626e-06 0 0.500014 0 5.50001V100.5C-3.05176e-05 102.5 2.49997 104 4.5 104H16.5C19.5 104 22 101.5 22 99.5V25.5C22 23.5 23.5 22 25.5 22H30.5C32.5 22 34 24 34 25.5V99.5C34 102.5 37 104 39.5 104H51.5C54 104 56 102 56 99.5V14.5C56 7 51.5 5.92311e-06 41.5 3.12169e-06H7.5Z" fill="white"/>
<path d="M80.5 104C73.5 104 68 98 68 90.5V14.5C68 5.50001 73.5 7.62939e-06 82.5 7.62939e-06H109.5C118 7.62939e-06 124 5.50001 124 13.5V35.5C124 37.5 122 39 119.5 39H107.5C105 39 102 37.5 102 35.5V25.5C102 23.5 101 22 98.5 22H94.5C92 22 90 23 90 26.5V78.5C90 81 91.5 82 93.5 82H99.5C101.5 82 102 80.5 102 78.5V70C102 69.5 102 69 100.5 69C99 69 96 67.5 96 63.5V53.5C96 49.5 97 47 100.5 47H117.5C121.5 47 124 47.5 124 50.5V92.5C124 99 118 104 111.5 104H80.5Z" fill="white"/>
</svg>
