<svg width="48" height="26" viewBox="0 0 48 26" fill="none" xmlns="http://www.w3.org/2000/svg">
<path fill-rule="evenodd" clip-rule="evenodd" d="M1 4.5C1 2.5 1.75 1 2.75 1C3.75 1 12.25 1 13.25 1C14.25 0.999995 15 2.5 15 4.5C15 6.5 15 19.6819 15 21.591C15 23.5 14.25 25 13.25 25C12.25 25 3.75 25 2.75 25C1.75 25 1 23.5 1 21.5C1 19.5 1 6.5 1 4.5ZM12.5 4C12.25 4 3.75 4 3.5 4C3.25 4 3 4.5 3 5C3 5.5 3 20.5 3 21C3 21.5 3.25 22 3.5 22C3.75 22 12.25 22 12.5 22C12.75 22 13 21.591 13 21C13 20.409 13 5.5 13 5C13 4.5 12.75 4 12.5 4Z" fill="white" stroke="white"/>
<path fill-rule="evenodd" clip-rule="evenodd" d="M33 4.5C33 2.5 33.75 1 34.75 1H45.25C46.25 0.999995 47 2.5 47 4.5L47 25H45V16H35V25H33V4.5ZM44.5 4H35.5C35.25 4 35 4.5 35 5L35 13L45 12.8966L45 5C45 4.5 44.75 4 44.5 4Z" fill="white"/>
<path d="M33 4.5C33 2.5 33.75 1 34.75 1M33 4.5C33 6.5 33 25 33 25M33 4.5V25M34.75 1C35.75 1 44.25 1 45.25 1M34.75 1H45.25M45.25 1C46.25 0.999995 47 2.5 47 4.5M47 4.5C47 6.5 47 23.091 47 25M47 4.5L47 25M47 25H45M33 25H35V16H45M35.5 4C35.75 4 44.25 4 44.5 4M35.5 4C35.25 4 35 4.5 35 5L35 13L45 12.8966M35.5 4H44.5M44.5 4C44.75 4 45 4.5 45 5M45 5C45 5.2143 45 8.81043 45 12.8966M45 5L45 12.8966M45 25C45 24.7255 45 20.4985 45 16M45 25V16" stroke="white"/>
<path d="M18.75 1C17.75 1 17 2.5 17 4.5V21.5C17 23.5 17.75 25 18.75 25H29.25C30.25 25 31 23.5 31 21.591L31 12H25.5V15H29V21C29 21.591 28.75 22 28.5 22H19.5C19.25 22 19 21.5 19 21V5C19 4.5 19.25 4 19.5 4H28.5C28.75 4 29 4.5 29 5V6H31L31 4.5C31 2.5 30.25 0.999995 29.25 1H18.75Z" fill="white" stroke="white"/>
</svg>
